<svg width="32" height="33" viewBox="0 0 32 33" fill="none" xmlns="http://www.w3.org/2000/svg">
<g id="emojione-monotone:flag-for-south-korea">
<path id="Vector" d="M4.10399 12.2259L7.47949 7.16295L7.13949 6.93695L6.80049 6.71045L3.42499 11.7734L3.76499 11.9994L4.10399 12.2259ZM5.03099 12.8434L5.36949 13.0699L8.74399 8.00695L8.40549 7.78045L8.06549 7.55445L4.69099 12.6174L5.03099 12.8434ZM6.29549 13.6869L6.63549 13.9134L10.0105 8.85095L9.67099 8.62495L9.33199 8.39795L5.95649 13.4609L6.29549 13.6869ZM24.129 21.6744L24.468 21.9004L26.0425 19.5389L25.7035 19.3129L25.364 19.0864L23.79 21.4479L24.129 21.6744ZM27.895 20.7744L26.3215 23.1354L26.66 23.3624L27 23.5884L28.574 21.2264L28.235 21.0004L27.895 20.7744ZM25.7335 22.7439L27.3085 20.3829L26.9685 20.1564L26.6295 19.9304L25.0555 22.2919L25.3945 22.5179L25.7335 22.7439ZM23.9035 22.0134L23.5635 21.7874L21.9895 24.1494L22.328 24.375L22.668 24.6014L24.242 22.2399L23.9035 22.0134ZM25.169 22.8574L24.829 22.6309L23.255 24.993L23.594 25.2194L23.934 25.4454L25.508 23.084L25.169 22.8574ZM26.0945 23.4749L24.5205 25.8369L24.8595 26.0634L25.1985 26.2889L26.7735 23.9274L26.4335 23.701L26.0945 23.4749ZM3.76499 21.0004L3.42499 21.2264L6.80049 26.2889L7.13949 26.0634L7.47949 25.8369L4.10399 20.7744L3.76499 21.0004ZM6.82999 22.8574L6.49099 23.084L8.06549 25.4454L8.40549 25.2194L8.74399 24.993L7.16999 22.6309L6.82999 22.8574ZM6.29549 19.3129L5.95649 19.5389L9.33199 24.6014L9.67099 24.375L10.0105 24.1494L6.63549 19.0864L6.29549 19.3129ZM4.69099 20.3829L6.26549 22.7439L6.60449 22.5179L6.94449 22.2919L5.36949 19.9304L5.03099 20.1564L4.69099 20.3829ZM26.4335 9.29895L26.7735 9.07245L25.1985 6.71045L24.8595 6.93695L24.5205 7.16295L26.0955 9.52495L26.4335 9.29895ZM23.9035 10.9864L24.242 10.7599L22.668 8.39795L22.328 8.62495L21.9895 8.85095L23.5635 11.2124L23.9035 10.9864ZM26.3215 9.86445L27.895 12.2259L28.235 11.9994L28.574 11.7734L27 9.41195L26.66 9.63795L26.3215 9.86445ZM26.9685 12.8434L27.3085 12.6174L23.934 7.55445L23.594 7.78045L23.255 8.00695L26.6295 13.0699L26.9685 12.8434ZM25.7035 13.6869L26.0425 13.4609L24.468 11.0989L24.129 11.3254L23.79 11.5519L25.364 13.9134L25.7035 13.6869Z" fill="#172B54"/>
<path id="Vector_2" d="M16 1.5C7.716 1.5 1 8.216 1 16.5C1 24.784 7.716 31.5 16 31.5C24.284 31.5 31 24.784 31 16.5C31 8.216 24.284 1.5 16 1.5ZM16 30.5C8.2805 30.5 2 24.2195 2 16.5C2 8.7805 8.2805 2.5 16 2.5C23.7195 2.5 30 8.7805 30 16.5C30 24.2195 23.7195 30.5 16 30.5Z" fill="#172B54"/>
<path id="Vector_3" d="M16 9.92041C12.372 9.92041 9.42099 12.8719 9.42099 16.4999C9.42099 20.1279 12.372 23.0794 16 23.0794C19.628 23.0794 22.579 20.1279 22.579 16.4999C22.579 12.8719 19.628 9.92041 16 9.92041ZM20.219 15.6564C19.8866 15.4347 19.5138 15.2807 19.1219 15.2031C18.7299 15.1255 18.3266 15.1259 17.9348 15.2042C17.543 15.2826 17.1705 15.4373 16.8385 15.6596C16.5065 15.8819 16.2216 16.1675 16 16.4999C15.5522 17.1712 14.8562 17.6372 14.065 17.7955C13.2737 17.9538 12.452 17.7913 11.7805 17.3439C11.1425 16.9189 10.6894 16.2678 10.5125 15.5219C10.977 12.9109 13.258 10.9204 16.0005 10.9204C19.0765 10.9204 21.5795 13.4234 21.5795 16.4999C21.5795 16.8349 21.545 17.1614 21.4875 17.4804C21.3112 16.7336 20.8578 16.0816 20.219 15.6564Z" fill="#172B54"/>
</g>
</svg>
