<svg width="16" height="16" viewBox="0 0 16 16" fill="none" xmlns="http://www.w3.org/2000/svg">
<g clip-path="url(#clip0_1233_34056)">
<path d="M2.0519 5.86297L3.73965 3.33147L3.56965 3.21847L3.40015 3.10522L1.7124 5.63672L1.8824 5.74972L2.0519 5.86297ZM2.5154 6.17172L2.68465 6.28497L4.3719 3.75347L4.20265 3.64022L4.03265 3.52722L2.3454 6.05872L2.5154 6.17172ZM3.14765 6.59347L3.31765 6.70672L5.00515 4.17547L4.8354 4.06247L4.6659 3.94897L2.97815 6.48047L3.14765 6.59347ZM12.0644 10.5872L12.2339 10.7002L13.0212 9.51947L12.8517 9.40647L12.6819 9.29322L11.8949 10.474L12.0644 10.5872ZM13.9474 10.1372L13.1607 11.3177L13.3299 11.4312L13.4999 11.5442L14.2869 10.3632L14.1174 10.2502L13.9474 10.1372ZM12.8667 11.122L13.6542 9.94147L13.4842 9.82822L13.3147 9.71522L12.5277 10.896L12.6972 11.009L12.8667 11.122ZM11.9517 10.7567L11.7817 10.6437L10.9947 11.8247L11.1639 11.9375L11.3339 12.0507L12.1209 10.87L11.9517 10.7567ZM12.5844 11.1787L12.4144 11.0655L11.6274 12.2465L11.7969 12.3597L11.9669 12.4727L12.7539 11.292L12.5844 11.1787ZM13.0472 11.4875L12.2602 12.6685L12.4297 12.7817L12.5992 12.8945L13.3867 11.7137L13.2167 11.6005L13.0472 11.4875ZM1.8824 10.2502L1.7124 10.3632L3.40015 12.8945L3.56965 12.7817L3.73965 12.6685L2.0519 10.1372L1.8824 10.2502ZM3.4149 11.1787L3.2454 11.292L4.03265 12.4727L4.20265 12.3597L4.3719 12.2465L3.5849 11.0655L3.4149 11.1787ZM3.14765 9.40647L2.97815 9.51947L4.6659 12.0507L4.8354 11.9375L5.00515 11.8247L3.31765 9.29322L3.14765 9.40647ZM2.3454 9.94147L3.13265 11.122L3.30215 11.009L3.47215 10.896L2.68465 9.71522L2.5154 9.82822L2.3454 9.94147ZM13.2167 4.39947L13.3867 4.28622L12.5992 3.10522L12.4297 3.21847L12.2602 3.33147L13.0477 4.51247L13.2167 4.39947ZM11.9517 5.24322L12.1209 5.12997L11.3339 3.94897L11.1639 4.06247L10.9947 4.17547L11.7817 5.35622L11.9517 5.24322ZM13.1607 4.68222L13.9474 5.86297L14.1174 5.74972L14.2869 5.63672L13.4999 4.45597L13.3299 4.56897L13.1607 4.68222ZM13.4842 6.17172L13.6542 6.05872L11.9669 3.52722L11.7969 3.64022L11.6274 3.75347L13.3147 6.28497L13.4842 6.17172ZM12.8517 6.59347L13.0212 6.48047L12.2339 5.29947L12.0644 5.41272L11.8949 5.52597L12.6819 6.70672L12.8517 6.59347Z" fill="#172B54"/>
<path d="M8 0.5C3.858 0.5 0.5 3.858 0.5 8C0.5 12.142 3.858 15.5 8 15.5C12.142 15.5 15.5 12.142 15.5 8C15.5 3.858 12.142 0.5 8 0.5ZM8 15C4.14025 15 1 11.8597 1 8C1 4.14025 4.14025 1 8 1C11.8597 1 15 4.14025 15 8C15 11.8597 11.8597 15 8 15Z" fill="#172B54"/>
<path d="M7.99995 4.71027C6.18595 4.71027 4.71045 6.18602 4.71045 8.00002C4.71045 9.81402 6.18595 11.2898 7.99995 11.2898C9.81395 11.2898 11.2894 9.81402 11.2894 8.00002C11.2894 6.18602 9.81395 4.71027 7.99995 4.71027ZM10.1094 7.57827C9.94325 7.46743 9.75685 7.39041 9.56088 7.35162C9.36492 7.31283 9.16323 7.31302 8.96734 7.35218C8.77145 7.39135 8.58519 7.46872 8.4192 7.57987C8.25322 7.69103 8.11075 7.8338 7.99995 8.00002C7.77607 8.33567 7.42807 8.56867 7.03244 8.64781C6.63682 8.72694 6.22596 8.64572 5.8902 8.42202C5.5712 8.20952 5.34464 7.88397 5.2562 7.51102C5.48845 6.20552 6.62895 5.21027 8.0002 5.21027C9.5382 5.21027 10.7897 6.46177 10.7897 8.00002C10.7897 8.16752 10.7724 8.33077 10.7437 8.49027C10.6556 8.11684 10.4289 7.79085 10.1094 7.57827Z" fill="#172B54"/>
</g>
<defs>
<clipPath id="clip0_1233_34056">
<rect width="16" height="16" fill="white"/>
</clipPath>
</defs>
</svg>
