<svg width="126" height="40" viewBox="0 0 126 40" fill="none" xmlns="http://www.w3.org/2000/svg">
<path d="M4.10399 12.2259L7.47949 7.16295L7.13949 6.93695L6.80049 6.71045L3.42499 11.7734L3.76499 11.9994L4.10399 12.2259ZM5.03099 12.8434L5.36949 13.0699L8.74399 8.00695L8.40549 7.78045L8.06549 7.55445L4.69099 12.6174L5.03099 12.8434ZM6.29549 13.6869L6.63549 13.9134L10.0105 8.85095L9.67099 8.62495L9.33199 8.39795L5.95649 13.4609L6.29549 13.6869ZM24.129 21.6744L24.468 21.9004L26.0425 19.5389L25.7035 19.3129L25.364 19.0864L23.79 21.4479L24.129 21.6744ZM27.895 20.7744L26.3215 23.1354L26.66 23.3624L27 23.5884L28.574 21.2264L28.235 21.0004L27.895 20.7744ZM25.7335 22.7439L27.3085 20.3829L26.9685 20.1564L26.6295 19.9304L25.0555 22.2919L25.3945 22.5179L25.7335 22.7439ZM23.9035 22.0134L23.5635 21.7874L21.9895 24.1494L22.328 24.375L22.668 24.6014L24.242 22.2399L23.9035 22.0134ZM25.169 22.8574L24.829 22.6309L23.255 24.993L23.594 25.2194L23.934 25.4454L25.508 23.084L25.169 22.8574ZM26.0945 23.4749L24.5205 25.8369L24.8595 26.0634L25.1985 26.2889L26.7735 23.9274L26.4335 23.701L26.0945 23.4749ZM3.76499 21.0004L3.42499 21.2264L6.80049 26.2889L7.13949 26.0634L7.47949 25.8369L4.10399 20.7744L3.76499 21.0004ZM6.82999 22.8574L6.49099 23.084L8.06549 25.4454L8.40549 25.2194L8.74399 24.993L7.16999 22.6309L6.82999 22.8574ZM6.29549 19.3129L5.95649 19.5389L9.33199 24.6014L9.67099 24.375L10.0105 24.1494L6.63549 19.0864L6.29549 19.3129ZM4.69099 20.3829L6.26549 22.7439L6.60449 22.5179L6.94449 22.2919L5.36949 19.9304L5.03099 20.1564L4.69099 20.3829ZM26.4335 9.29895L26.7735 9.07245L25.1985 6.71045L24.8595 6.93695L24.5205 7.16295L26.0955 9.52495L26.4335 9.29895ZM23.9035 10.9864L24.242 10.7599L22.668 8.39795L22.328 8.62495L21.9895 8.85095L23.5635 11.2124L23.9035 10.9864ZM26.3215 9.86445L27.895 12.2259L28.235 11.9994L28.574 11.7734L27 9.41195L26.66 9.63795L26.3215 9.86445ZM26.9685 12.8434L27.3085 12.6174L23.934 7.55445L23.594 7.78045L23.255 8.00695L26.6295 13.0699L26.9685 12.8434ZM25.7035 13.6869L26.0425 13.4609L24.468 11.0989L24.129 11.3254L23.79 11.5519L25.364 13.9134L25.7035 13.6869Z" fill="#172B54"/>
<path d="M16 1.5C7.716 1.5 1 8.216 1 16.5C1 24.784 7.716 31.5 16 31.5C24.284 31.5 31 24.784 31 16.5C31 8.216 24.284 1.5 16 1.5ZM16 30.5C8.2805 30.5 2 24.2195 2 16.5C2 8.7805 8.2805 2.5 16 2.5C23.7195 2.5 30 8.7805 30 16.5C30 24.2195 23.7195 30.5 16 30.5Z" fill="#172B54"/>
<path d="M16 9.92041C12.372 9.92041 9.42099 12.8719 9.42099 16.4999C9.42099 20.1279 12.372 23.0794 16 23.0794C19.628 23.0794 22.579 20.1279 22.579 16.4999C22.579 12.8719 19.628 9.92041 16 9.92041ZM20.219 15.6564C19.8866 15.4347 19.5138 15.2807 19.1219 15.2031C18.7299 15.1255 18.3266 15.1259 17.9348 15.2042C17.543 15.2826 17.1705 15.4373 16.8385 15.6596C16.5065 15.8819 16.2216 16.1675 16 16.4999C15.5522 17.1712 14.8562 17.6372 14.065 17.7955C13.2737 17.9538 12.452 17.7913 11.7805 17.3439C11.1425 16.9189 10.6894 16.2678 10.5125 15.5219C10.977 12.9109 13.258 10.9204 16.0005 10.9204C19.0765 10.9204 21.5795 13.4234 21.5795 16.4999C21.5795 16.8349 21.545 17.1614 21.4875 17.4804C21.3112 16.7336 20.8578 16.0816 20.219 15.6564Z" fill="#172B54"/>
<path d="M41.472 18.66L41.256 14.172L49.296 5.7H53.616L46.368 13.5L44.208 15.804L41.472 18.66ZM37.992 22.5V5.7H41.856V22.5H37.992ZM49.488 22.5L43.512 15.18L46.056 12.42L54.024 22.5H49.488ZM63.3083 22.788C61.9803 22.788 60.7483 22.572 59.6123 22.14C58.4923 21.708 57.5163 21.1 56.6842 20.316C55.8683 19.532 55.2283 18.612 54.7643 17.556C54.3163 16.5 54.0923 15.348 54.0923 14.1C54.0923 12.852 54.3163 11.7 54.7643 10.644C55.2283 9.588 55.8763 8.668 56.7083 7.884C57.5403 7.1 58.5163 6.492 59.6363 6.06C60.7563 5.628 61.9723 5.412 63.2843 5.412C64.6123 5.412 65.8282 5.628 66.9323 6.06C68.0523 6.492 69.0203 7.1 69.8363 7.884C70.6683 8.668 71.3163 9.588 71.7803 10.644C72.2443 11.684 72.4763 12.836 72.4763 14.1C72.4763 15.348 72.2443 16.508 71.7803 17.58C71.3163 18.636 70.6683 19.556 69.8363 20.34C69.0203 21.108 68.0523 21.708 66.9323 22.14C65.8282 22.572 64.6202 22.788 63.3083 22.788ZM63.2843 19.476C64.0363 19.476 64.7243 19.348 65.3483 19.092C65.9883 18.836 66.5483 18.468 67.0283 17.988C67.5083 17.508 67.8763 16.94 68.1323 16.284C68.4043 15.628 68.5403 14.9 68.5403 14.1C68.5403 13.3 68.4043 12.572 68.1323 11.916C67.8763 11.26 67.5083 10.692 67.0283 10.212C66.5643 9.732 66.0123 9.364 65.3723 9.108C64.7323 8.852 64.0363 8.724 63.2843 8.724C62.5323 8.724 61.8363 8.852 61.1963 9.108C60.5723 9.364 60.0203 9.732 59.5403 10.212C59.0603 10.692 58.6843 11.26 58.4123 11.916C58.1563 12.572 58.0283 13.3 58.0283 14.1C58.0283 14.884 58.1563 15.612 58.4123 16.284C58.6843 16.94 59.0523 17.508 59.5163 17.988C59.9963 18.468 60.5563 18.836 61.1963 19.092C61.8363 19.348 62.5323 19.476 63.2843 19.476ZM75.3983 22.5V5.7H82.6703C84.1743 5.7 85.4703 5.948 86.5583 6.444C87.6463 6.924 88.4863 7.62 89.0783 8.532C89.6703 9.444 89.9663 10.532 89.9663 11.796C89.9663 13.044 89.6703 14.124 89.0783 15.036C88.4863 15.932 87.6463 16.62 86.5583 17.1C85.4703 17.58 84.1743 17.82 82.6703 17.82H77.5583L79.2863 16.116V22.5H75.3983ZM86.0782 22.5L81.8783 16.404H86.0303L90.2783 22.5H86.0782ZM79.2863 16.548L77.5583 14.724H82.4543C83.6543 14.724 84.5503 14.468 85.1423 13.956C85.7343 13.428 86.0303 12.708 86.0303 11.796C86.0303 10.868 85.7343 10.148 85.1423 9.636C84.5503 9.124 83.6543 8.868 82.4543 8.868H77.5583L79.2863 7.02V16.548ZM96.6227 12.468H104.711V15.492H96.6227V12.468ZM96.9107 19.38H106.055V22.5H93.0467V5.7H105.743V8.82H96.9107V19.38ZM106.94 22.5L114.428 5.7H118.268L125.78 22.5H121.7L115.556 7.668H117.092L110.924 22.5H106.94ZM110.684 18.9L111.716 15.948H120.356L121.412 18.9H110.684Z" fill="#172B54"/>
<path d="M73.44 35.56C72.888 35.56 72.392 35.436 71.952 35.188C71.512 34.932 71.164 34.564 70.908 34.084C70.652 33.604 70.524 33.024 70.524 32.344C70.524 31.656 70.652 31.076 70.908 30.604C71.172 30.124 71.524 29.76 71.964 29.512C72.404 29.264 72.896 29.14 73.44 29.14C74.04 29.14 74.576 29.276 75.048 29.548C75.528 29.812 75.904 30.184 76.176 30.664C76.448 31.144 76.584 31.704 76.584 32.344C76.584 32.976 76.448 33.536 76.176 34.024C75.904 34.504 75.528 34.88 75.048 35.152C74.576 35.424 74.04 35.56 73.44 35.56ZM70.188 35.5V26.596H71.04V31.06L70.92 32.332L71.004 33.604V35.5H70.188ZM73.38 34.804C73.828 34.804 74.228 34.704 74.58 34.504C74.932 34.296 75.212 34.008 75.42 33.64C75.628 33.264 75.732 32.832 75.732 32.344C75.732 31.848 75.628 31.416 75.42 31.048C75.212 30.68 74.932 30.396 74.58 30.196C74.228 29.988 73.828 29.884 73.38 29.884C72.932 29.884 72.528 29.988 72.168 30.196C71.816 30.396 71.536 30.68 71.328 31.048C71.128 31.416 71.028 31.848 71.028 32.344C71.028 32.832 71.128 33.264 71.328 33.64C71.536 34.008 71.816 34.296 72.168 34.504C72.528 34.704 72.932 34.804 73.38 34.804ZM78.193 37.888C77.897 37.888 77.613 37.84 77.341 37.744C77.077 37.648 76.849 37.504 76.657 37.312L77.053 36.676C77.213 36.828 77.385 36.944 77.569 37.024C77.761 37.112 77.973 37.156 78.205 37.156C78.485 37.156 78.725 37.076 78.925 36.916C79.133 36.764 79.329 36.492 79.513 36.1L79.921 35.176L80.017 35.044L82.609 29.2H83.449L80.293 36.256C80.117 36.664 79.921 36.988 79.705 37.228C79.497 37.468 79.269 37.636 79.021 37.732C78.773 37.836 78.497 37.888 78.193 37.888ZM79.873 35.68L76.969 29.2H77.857L80.425 34.984L79.873 35.68ZM94.1136 27.1H94.9896V35.5H94.1136V27.1ZM88.8576 35.5H87.9696V27.1H88.8576V35.5ZM94.1976 31.624H88.7616V30.844H94.1976V31.624ZM100.227 35.56C99.5713 35.56 98.9953 35.424 98.4993 35.152C98.0033 34.872 97.6153 34.492 97.3353 34.012C97.0553 33.524 96.9153 32.968 96.9153 32.344C96.9153 31.72 97.0473 31.168 97.3113 30.688C97.5833 30.208 97.9513 29.832 98.4153 29.56C98.8873 29.28 99.4153 29.14 99.9993 29.14C100.591 29.14 101.115 29.276 101.571 29.548C102.035 29.812 102.399 30.188 102.663 30.676C102.927 31.156 103.059 31.712 103.059 32.344C103.059 32.384 103.055 32.428 103.047 32.476C103.047 32.516 103.047 32.56 103.047 32.608H97.5633V31.972H102.591L102.255 32.224C102.255 31.768 102.155 31.364 101.955 31.012C101.763 30.652 101.499 30.372 101.163 30.172C100.827 29.972 100.439 29.872 99.9993 29.872C99.5673 29.872 99.1793 29.972 98.8353 30.172C98.4913 30.372 98.2233 30.652 98.0313 31.012C97.8393 31.372 97.7433 31.784 97.7433 32.248V32.38C97.7433 32.86 97.8473 33.284 98.0553 33.652C98.2713 34.012 98.5673 34.296 98.9433 34.504C99.3273 34.704 99.7633 34.804 100.251 34.804C100.635 34.804 100.991 34.736 101.319 34.6C101.655 34.464 101.943 34.256 102.183 33.976L102.663 34.528C102.383 34.864 102.031 35.12 101.607 35.296C101.191 35.472 100.731 35.56 100.227 35.56ZM104.793 35.5V26.596H105.645V35.5H104.793ZM108.016 35.5V29.2H108.868V35.5H108.016ZM108.448 27.808C108.272 27.808 108.124 27.748 108.004 27.628C107.884 27.508 107.824 27.364 107.824 27.196C107.824 27.028 107.884 26.888 108.004 26.776C108.124 26.656 108.272 26.596 108.448 26.596C108.624 26.596 108.772 26.652 108.892 26.764C109.012 26.876 109.072 27.016 109.072 27.184C109.072 27.36 109.012 27.508 108.892 27.628C108.78 27.748 108.632 27.808 108.448 27.808ZM114.455 29.14C114.967 29.14 115.415 29.24 115.799 29.44C116.191 29.632 116.495 29.928 116.711 30.328C116.935 30.728 117.047 31.232 117.047 31.84V35.5H116.195V31.924C116.195 31.26 116.027 30.76 115.691 30.424C115.363 30.08 114.899 29.908 114.299 29.908C113.851 29.908 113.459 30 113.123 30.184C112.795 30.36 112.539 30.62 112.355 30.964C112.179 31.3 112.091 31.708 112.091 32.188V35.5H111.239V29.2H112.055V30.928L111.923 30.604C112.123 30.148 112.443 29.792 112.883 29.536C113.323 29.272 113.847 29.14 114.455 29.14ZM123.296 35.5V34.108L123.26 33.88V31.552C123.26 31.016 123.108 30.604 122.804 30.316C122.508 30.028 122.064 29.884 121.472 29.884C121.064 29.884 120.676 29.952 120.308 30.088C119.94 30.224 119.628 30.404 119.372 30.628L118.988 29.992C119.308 29.72 119.692 29.512 120.14 29.368C120.588 29.216 121.06 29.14 121.556 29.14C122.372 29.14 123 29.344 123.44 29.752C123.888 30.152 124.112 30.764 124.112 31.588V35.5H123.296ZM121.124 35.56C120.652 35.56 120.24 35.484 119.888 35.332C119.544 35.172 119.28 34.956 119.096 34.684C118.912 34.404 118.82 34.084 118.82 33.724C118.82 33.396 118.896 33.1 119.048 32.836C119.208 32.564 119.464 32.348 119.816 32.188C120.176 32.02 120.656 31.936 121.256 31.936H123.428V32.572H121.28C120.672 32.572 120.248 32.68 120.008 32.896C119.776 33.112 119.66 33.38 119.66 33.7C119.66 34.06 119.8 34.348 120.08 34.564C120.36 34.78 120.752 34.888 121.256 34.888C121.736 34.888 122.148 34.78 122.492 34.564C122.844 34.34 123.1 34.02 123.26 33.604L123.452 34.192C123.292 34.608 123.012 34.94 122.612 35.188C122.22 35.436 121.724 35.56 121.124 35.56Z" fill="#172B54"/>
</svg>
