<svg width="127" height="40" viewBox="0 0 127 40" fill="none" xmlns="http://www.w3.org/2000/svg">
<path d="M4.46117 12.2259L7.83667 7.16295L7.49667 6.93695L7.15767 6.71045L3.78217 11.7734L4.12217 11.9994L4.46117 12.2259ZM5.38817 12.8434L5.72667 13.0699L9.10117 8.00695L8.76267 7.78045L8.42267 7.55445L5.04817 12.6174L5.38817 12.8434ZM6.65267 13.6869L6.99267 13.9134L10.3677 8.85095L10.0282 8.62495L9.68917 8.39795L6.31367 13.4609L6.65267 13.6869ZM24.4862 21.6744L24.8252 21.9004L26.3997 19.5389L26.0607 19.3129L25.7212 19.0864L24.1472 21.4479L24.4862 21.6744ZM28.2522 20.7744L26.6787 23.1354L27.0172 23.3624L27.3572 23.5884L28.9312 21.2264L28.5922 21.0004L28.2522 20.7744ZM26.0907 22.7439L27.6657 20.3829L27.3257 20.1564L26.9867 19.9304L25.4127 22.2919L25.7517 22.5179L26.0907 22.7439ZM24.2607 22.0134L23.9207 21.7874L22.3467 24.1494L22.6852 24.375L23.0252 24.6014L24.5992 22.2399L24.2607 22.0134ZM25.5262 22.8574L25.1862 22.6309L23.6122 24.993L23.9512 25.2194L24.2912 25.4454L25.8652 23.084L25.5262 22.8574ZM26.4517 23.4749L24.8777 25.8369L25.2167 26.0634L25.5557 26.2889L27.1307 23.9274L26.7907 23.701L26.4517 23.4749ZM4.12217 21.0004L3.78217 21.2264L7.15767 26.2889L7.49667 26.0634L7.83667 25.8369L4.46117 20.7744L4.12217 21.0004ZM7.18717 22.8574L6.84817 23.084L8.42267 25.4454L8.76267 25.2194L9.10117 24.993L7.52717 22.6309L7.18717 22.8574ZM6.65267 19.3129L6.31367 19.5389L9.68917 24.6014L10.0282 24.375L10.3677 24.1494L6.99267 19.0864L6.65267 19.3129ZM5.04817 20.3829L6.62267 22.7439L6.96167 22.5179L7.30167 22.2919L5.72667 19.9304L5.38817 20.1564L5.04817 20.3829ZM26.7907 9.29895L27.1307 9.07245L25.5557 6.71045L25.2167 6.93695L24.8777 7.16295L26.4527 9.52495L26.7907 9.29895ZM24.2607 10.9864L24.5992 10.7599L23.0252 8.39795L22.6852 8.62495L22.3467 8.85095L23.9207 11.2124L24.2607 10.9864ZM26.6787 9.86445L28.2522 12.2259L28.5922 11.9994L28.9312 11.7734L27.3572 9.41195L27.0172 9.63795L26.6787 9.86445ZM27.3257 12.8434L27.6657 12.6174L24.2912 7.55445L23.9512 7.78045L23.6122 8.00695L26.9867 13.0699L27.3257 12.8434ZM26.0607 13.6869L26.3997 13.4609L24.8252 11.0989L24.4862 11.3254L24.1472 11.5519L25.7212 13.9134L26.0607 13.6869Z" fill="#E7DCCA"/>
<path d="M16.3572 1.5C8.07318 1.5 1.35718 8.216 1.35718 16.5C1.35718 24.784 8.07318 31.5 16.3572 31.5C24.6412 31.5 31.3572 24.784 31.3572 16.5C31.3572 8.216 24.6412 1.5 16.3572 1.5ZM16.3572 30.5C8.63768 30.5 2.35718 24.2195 2.35718 16.5C2.35718 8.7805 8.63768 2.5 16.3572 2.5C24.0767 2.5 30.3572 8.7805 30.3572 16.5C30.3572 24.2195 24.0767 30.5 16.3572 30.5Z" fill="#E7DCCA"/>
<path d="M16.3572 9.92041C12.7292 9.92041 9.77817 12.8719 9.77817 16.4999C9.77817 20.1279 12.7292 23.0794 16.3572 23.0794C19.9852 23.0794 22.9362 20.1279 22.9362 16.4999C22.9362 12.8719 19.9852 9.92041 16.3572 9.92041ZM20.5762 15.6564C20.2438 15.4347 19.871 15.2807 19.479 15.2031C19.0871 15.1255 18.6837 15.1259 18.2919 15.2042C17.9002 15.2826 17.5277 15.4373 17.1957 15.6596C16.8637 15.8819 16.5788 16.1675 16.3572 16.4999C15.9094 17.1712 15.2134 17.6372 14.4222 17.7955C13.6309 17.9538 12.8092 17.7913 12.1377 17.3439C11.4997 16.9189 11.0465 16.2678 10.8697 15.5219C11.3342 12.9109 13.6152 10.9204 16.3577 10.9204C19.4337 10.9204 21.9367 13.4234 21.9367 16.4999C21.9367 16.8349 21.9022 17.1614 21.8447 17.4804C21.6684 16.7336 21.215 16.0816 20.5762 15.6564Z" fill="#E7DCCA"/>
<path d="M41.8292 18.66L41.6132 14.172L49.6532 5.7H53.9732L46.7252 13.5L44.5652 15.804L41.8292 18.66ZM38.3492 22.5V5.7H42.2132V22.5H38.3492ZM49.8452 22.5L43.8692 15.18L46.4132 12.42L54.3812 22.5H49.8452ZM63.6654 22.788C62.3374 22.788 61.1054 22.572 59.9694 22.14C58.8494 21.708 57.8734 21.1 57.0414 20.316C56.2254 19.532 55.5854 18.612 55.1214 17.556C54.6734 16.5 54.4494 15.348 54.4494 14.1C54.4494 12.852 54.6734 11.7 55.1214 10.644C55.5854 9.588 56.2334 8.668 57.0654 7.884C57.8974 7.1 58.8734 6.492 59.9934 6.06C61.1134 5.628 62.3294 5.412 63.6414 5.412C64.9694 5.412 66.1854 5.628 67.2894 6.06C68.4094 6.492 69.3774 7.1 70.1934 7.884C71.0254 8.668 71.6734 9.588 72.1374 10.644C72.6014 11.684 72.8334 12.836 72.8334 14.1C72.8334 15.348 72.6014 16.508 72.1374 17.58C71.6734 18.636 71.0254 19.556 70.1934 20.34C69.3774 21.108 68.4094 21.708 67.2894 22.14C66.1854 22.572 64.9774 22.788 63.6654 22.788ZM63.6414 19.476C64.3934 19.476 65.0814 19.348 65.7054 19.092C66.3454 18.836 66.9054 18.468 67.3854 17.988C67.8654 17.508 68.2334 16.94 68.4894 16.284C68.7614 15.628 68.8974 14.9 68.8974 14.1C68.8974 13.3 68.7614 12.572 68.4894 11.916C68.2334 11.26 67.8654 10.692 67.3854 10.212C66.9214 9.732 66.3694 9.364 65.7294 9.108C65.0894 8.852 64.3934 8.724 63.6414 8.724C62.8894 8.724 62.1934 8.852 61.5534 9.108C60.9294 9.364 60.3774 9.732 59.8974 10.212C59.4174 10.692 59.0414 11.26 58.7694 11.916C58.5134 12.572 58.3854 13.3 58.3854 14.1C58.3854 14.884 58.5134 15.612 58.7694 16.284C59.0414 16.94 59.4094 17.508 59.8734 17.988C60.3534 18.468 60.9134 18.836 61.5534 19.092C62.1934 19.348 62.8894 19.476 63.6414 19.476ZM75.7554 22.5V5.7H83.0274C84.5314 5.7 85.8274 5.948 86.9154 6.444C88.0034 6.924 88.8434 7.62 89.4354 8.532C90.0274 9.444 90.3234 10.532 90.3234 11.796C90.3234 13.044 90.0274 14.124 89.4354 15.036C88.8434 15.932 88.0034 16.62 86.9154 17.1C85.8274 17.58 84.5314 17.82 83.0274 17.82H77.9154L79.6434 16.116V22.5H75.7554ZM86.4354 22.5L82.2354 16.404H86.3874L90.6354 22.5H86.4354ZM79.6434 16.548L77.9154 14.724H82.8114C84.0114 14.724 84.9074 14.468 85.4994 13.956C86.0914 13.428 86.3874 12.708 86.3874 11.796C86.3874 10.868 86.0914 10.148 85.4994 9.636C84.9074 9.124 84.0114 8.868 82.8114 8.868H77.9154L79.6434 7.02V16.548ZM96.9799 12.468H105.068V15.492H96.9799V12.468ZM97.2679 19.38H106.412V22.5H93.4039V5.7H106.1V8.82H97.2679V19.38ZM107.297 22.5L114.785 5.7H118.625L126.137 22.5H122.057L115.913 7.668H117.449L111.281 22.5H107.297ZM111.041 18.9L112.073 15.948H120.713L121.769 18.9H111.041Z" fill="#E7DCCA"/>
<path d="M73.7972 35.56C73.2452 35.56 72.7492 35.436 72.3092 35.188C71.8692 34.932 71.5212 34.564 71.2652 34.084C71.0092 33.604 70.8812 33.024 70.8812 32.344C70.8812 31.656 71.0092 31.076 71.2652 30.604C71.5292 30.124 71.8812 29.76 72.3212 29.512C72.7612 29.264 73.2532 29.14 73.7972 29.14C74.3972 29.14 74.9332 29.276 75.4052 29.548C75.8852 29.812 76.2612 30.184 76.5332 30.664C76.8052 31.144 76.9412 31.704 76.9412 32.344C76.9412 32.976 76.8052 33.536 76.5332 34.024C76.2612 34.504 75.8852 34.88 75.4052 35.152C74.9332 35.424 74.3972 35.56 73.7972 35.56ZM70.5452 35.5V26.596H71.3972V31.06L71.2772 32.332L71.3612 33.604V35.5H70.5452ZM73.7372 34.804C74.1852 34.804 74.5852 34.704 74.9372 34.504C75.2892 34.296 75.5692 34.008 75.7772 33.64C75.9852 33.264 76.0892 32.832 76.0892 32.344C76.0892 31.848 75.9852 31.416 75.7772 31.048C75.5692 30.68 75.2892 30.396 74.9372 30.196C74.5852 29.988 74.1852 29.884 73.7372 29.884C73.2892 29.884 72.8852 29.988 72.5252 30.196C72.1732 30.396 71.8932 30.68 71.6852 31.048C71.4852 31.416 71.3852 31.848 71.3852 32.344C71.3852 32.832 71.4852 33.264 71.6852 33.64C71.8932 34.008 72.1732 34.296 72.5252 34.504C72.8852 34.704 73.2892 34.804 73.7372 34.804ZM78.5502 37.888C78.2542 37.888 77.9702 37.84 77.6982 37.744C77.4342 37.648 77.2062 37.504 77.0142 37.312L77.4102 36.676C77.5702 36.828 77.7422 36.944 77.9262 37.024C78.1182 37.112 78.3302 37.156 78.5622 37.156C78.8422 37.156 79.0822 37.076 79.2822 36.916C79.4902 36.764 79.6862 36.492 79.8702 36.1L80.2782 35.176L80.3742 35.044L82.9662 29.2H83.8062L80.6502 36.256C80.4742 36.664 80.2782 36.988 80.0622 37.228C79.8542 37.468 79.6262 37.636 79.3782 37.732C79.1302 37.836 78.8542 37.888 78.5502 37.888ZM80.2302 35.68L77.3262 29.2H78.2142L80.7822 34.984L80.2302 35.68ZM94.4707 27.1H95.3467V35.5H94.4707V27.1ZM89.2147 35.5H88.3267V27.1H89.2147V35.5ZM94.5547 31.624H89.1187V30.844H94.5547V31.624ZM100.584 35.56C99.9285 35.56 99.3525 35.424 98.8565 35.152C98.3605 34.872 97.9725 34.492 97.6925 34.012C97.4125 33.524 97.2725 32.968 97.2725 32.344C97.2725 31.72 97.4045 31.168 97.6685 30.688C97.9405 30.208 98.3085 29.832 98.7725 29.56C99.2445 29.28 99.7725 29.14 100.356 29.14C100.948 29.14 101.472 29.276 101.928 29.548C102.392 29.812 102.756 30.188 103.02 30.676C103.284 31.156 103.416 31.712 103.416 32.344C103.416 32.384 103.412 32.428 103.404 32.476C103.404 32.516 103.404 32.56 103.404 32.608H97.9205V31.972H102.948L102.612 32.224C102.612 31.768 102.512 31.364 102.312 31.012C102.12 30.652 101.856 30.372 101.52 30.172C101.184 29.972 100.796 29.872 100.356 29.872C99.9245 29.872 99.5365 29.972 99.1925 30.172C98.8485 30.372 98.5805 30.652 98.3885 31.012C98.1965 31.372 98.1005 31.784 98.1005 32.248V32.38C98.1005 32.86 98.2045 33.284 98.4125 33.652C98.6285 34.012 98.9245 34.296 99.3005 34.504C99.6845 34.704 100.12 34.804 100.608 34.804C100.992 34.804 101.348 34.736 101.676 34.6C102.012 34.464 102.3 34.256 102.54 33.976L103.02 34.528C102.74 34.864 102.388 35.12 101.964 35.296C101.548 35.472 101.088 35.56 100.584 35.56ZM105.151 35.5V26.596H106.003V35.5H105.151ZM108.373 35.5V29.2H109.225V35.5H108.373ZM108.805 27.808C108.629 27.808 108.481 27.748 108.361 27.628C108.241 27.508 108.181 27.364 108.181 27.196C108.181 27.028 108.241 26.888 108.361 26.776C108.481 26.656 108.629 26.596 108.805 26.596C108.981 26.596 109.129 26.652 109.249 26.764C109.369 26.876 109.429 27.016 109.429 27.184C109.429 27.36 109.369 27.508 109.249 27.628C109.137 27.748 108.989 27.808 108.805 27.808ZM114.812 29.14C115.324 29.14 115.772 29.24 116.156 29.44C116.548 29.632 116.852 29.928 117.068 30.328C117.292 30.728 117.404 31.232 117.404 31.84V35.5H116.552V31.924C116.552 31.26 116.384 30.76 116.048 30.424C115.72 30.08 115.256 29.908 114.656 29.908C114.208 29.908 113.816 30 113.48 30.184C113.152 30.36 112.896 30.62 112.712 30.964C112.536 31.3 112.448 31.708 112.448 32.188V35.5H111.596V29.2H112.412V30.928L112.28 30.604C112.48 30.148 112.8 29.792 113.24 29.536C113.68 29.272 114.204 29.14 114.812 29.14ZM123.653 35.5V34.108L123.617 33.88V31.552C123.617 31.016 123.465 30.604 123.161 30.316C122.865 30.028 122.421 29.884 121.829 29.884C121.421 29.884 121.033 29.952 120.665 30.088C120.297 30.224 119.985 30.404 119.729 30.628L119.345 29.992C119.665 29.72 120.049 29.512 120.497 29.368C120.945 29.216 121.417 29.14 121.913 29.14C122.729 29.14 123.357 29.344 123.797 29.752C124.245 30.152 124.469 30.764 124.469 31.588V35.5H123.653ZM121.481 35.56C121.009 35.56 120.597 35.484 120.245 35.332C119.901 35.172 119.637 34.956 119.453 34.684C119.269 34.404 119.177 34.084 119.177 33.724C119.177 33.396 119.253 33.1 119.405 32.836C119.565 32.564 119.821 32.348 120.173 32.188C120.533 32.02 121.013 31.936 121.613 31.936H123.785V32.572H121.637C121.029 32.572 120.605 32.68 120.365 32.896C120.133 33.112 120.017 33.38 120.017 33.7C120.017 34.06 120.157 34.348 120.437 34.564C120.717 34.78 121.109 34.888 121.613 34.888C122.093 34.888 122.505 34.78 122.849 34.564C123.201 34.34 123.457 34.02 123.617 33.604L123.809 34.192C123.649 34.608 123.369 34.94 122.969 35.188C122.577 35.436 122.081 35.56 121.481 35.56Z" fill="#E7DCCA"/>
</svg>
